<svg xmlns="http://www.w3.org/2000/svg" width="138" height="79.696" viewBox="0 0 138 79.696">
  <g id="teliani_logo" data-name="teliani logo" transform="translate(-60.872 -81.926)">
    <path id="Path_1" data-name="Path 1" d="M153.036,149.428H150.5v-2.194h7.289v2.194h-2.556v11.893h-2.2Zm8.118,11.893h2.2V147.233h-2.2Zm23.479-14.09v9.62l-3.85-9.62h-2.237v14.091h2.172v-8.895l3.717,8.895H186.8V147.231Zm-13.5-.3a4.125,4.125,0,0,1,4.121,4.128v6.436a4.128,4.128,0,0,1-8.256,0v-6.436a4.136,4.136,0,0,1,4.136-4.128m0,12.489a1.921,1.921,0,0,0,1.921-1.925v-6.436a1.928,1.928,0,0,0-3.855,0v6.436a1.932,1.932,0,0,0,1.935,1.925m-25.055-1.925h2.2a4.128,4.128,0,1,1-8.257,0v-6.436a4.128,4.128,0,1,1,8.257,0h-2.2a1.927,1.927,0,1,0-3.854,0v6.436a1.927,1.927,0,0,0,3.854,0ZM104.194,146.93a4.127,4.127,0,0,1,4.123,4.128v6.436a4.129,4.129,0,0,1-8.257,0v-6.436a4.137,4.137,0,0,1,4.134-4.128m1.921,4.128a1.927,1.927,0,0,0-3.854,0v6.436a1.927,1.927,0,0,0,3.854,0Zm-11.19,6.436h2.2a4.129,4.129,0,0,1-8.258,0v-6.436a4.129,4.129,0,1,1,8.258,0h-2.2a1.927,1.927,0,1,0-3.854,0v6.436a1.927,1.927,0,0,0,3.854,0Zm18.767-10.263h-2.2v14.088h6.558v-2.2h-4.36Zm9.628,0h-2.2v14.088h6.558v-2.2h-4.36Zm13.821,2.194v-2.2h-6.519v14.089h6.519v-2.2h-4.319v-3.75h3.437v-2.2h-3.437v-3.748Zm-15.933-35.734-.016.019v-.019Zm13.436,18.066c-.23.4-.1,1.009-.306,1.45a3.565,3.565,0,0,1-1.415,1.257,4.9,4.9,0,0,1-3.791.908,6.847,6.847,0,0,1-5.112-4.744c-.949,1.472-3.265,2.046-4.848,2.578a15.932,15.932,0,0,1-3.233.785c-.87.073-1.794-.627-2.6-.952a4.693,4.693,0,0,1-1.235-.965,19.765,19.765,0,0,1-3.052-5.878c-.63.486-1.09,1.074-1.663,1.563-.731.6-1.646,1.037-2.415,1.63-.7-.851-2.115,1.871-3.07,1.544-1.043-.341-1.166-.942-1.686-1.645.117-.179-.054-.344-.25-.628,1.419-.46,3.158-3.126,2.33-2.691a22.6,22.6,0,0,1-3.823,1.772c.088.012-.183.041-.495.066.079-.612,1.869-1.444,2.452-1.787,1.239-.735,2.336-1.715,3.571-2.481,1.056-.655,2.011-1.491,3.07-2.14.322-.208.713-.22.877-.636a1.412,1.412,0,0,1,.441-.583c.278-.262.965-.514.864-1-.079-.448.012-.82-.107-1.267a7.871,7.871,0,0,0,.195-3.152c-.012-.05.054-.126.092-.17.041,0,.013-.791.1-1.393.056-.6-.085-1.393-.013-1.377.265-.356.176-1,.239-1.422a12.844,12.844,0,0,0,.123-1.355c0-.214.183-1.292.183-1.33-.022-.312.615-1.144.174-1.286.17-.312.561-2.259.721-2.66a25.437,25.437,0,0,1,.914-2.805v-.012a.012.012,0,0,1-.013-.012,5.476,5.476,0,0,0,.281-1.053c0-.1.4-.933.46-1.166a3.6,3.6,0,0,1,.57-1.377,4.279,4.279,0,0,1,.7-.508,25.817,25.817,0,0,1,2.893-1.245,7.487,7.487,0,0,1,1.8-.255c.2-.012.495-.192.69-.151.526.139,1.122-.028,1.608.359.1.095.532.127.494.347-.066.29,1.68,1.973,2.062,2.44.082.1.28.557.463.545a9.252,9.252,0,0,0,.649.842,9.046,9.046,0,0,1,.741,2.194c.056.536.148,3.858.173,4.35a2.448,2.448,0,0,1-.514,1.374c-.012.028-.063.041-.094.054-.177.013-.354,1.752-.612,1.674-.044.24-.932,1.254-.932,1.948a14.281,14.281,0,0,0-1.935,2.329c-.054.047-.545.857-.864,1.2-.293.318-.844,1.084-.693,1.254-.379.656-1.274,2-1.274,2a1.978,1.978,0,0,0-.686.656c-.171.343-.391.123-.546.356-.287.337-.57.69-.87,1.065a5.414,5.414,0,0,0-1.56,1.037c-.284.286-.517.637-.788.911-.454.387-.7.466-1.131.883-.52.633.041,2.7.274,3.388.3.848,1.128,2.607,1,3.1,0-.154-.845-.583-1.027-.8a6.462,6.462,0,0,0,1.264,2.045c.278.457,1.134.5,1.674.741.74.3,1.844-.788,2.351-1.213A14.626,14.626,0,0,0,122.078,126c.832-1.469.435-2.881,1.3-4.321a7.551,7.551,0,0,1,1.7-2.039c.486-.366.435-1.207.681-1.721.208-.485,2-1.484,2.5-1.251a8.677,8.677,0,0,1,.294,2.582c-.193.857-.375,1.714-.533,2.572-.3,1.674-.536,3.237-.675,4.923-.153,1.825-.283,3.927,1.085,5.361.839.891,1.4.63,2.2-.161a2.7,2.7,0,0,0,.936-1.809c.558.271.658.589,1.362.4a2.618,2.618,0,0,1,1.79.369l.016.022A1.157,1.157,0,0,1,134.644,131.757Zm-21.029-21.214c-.123,2.083-.079,3.9-.167,4.743a31.886,31.886,0,0,0,3.01-3.517,13.357,13.357,0,0,0,2.648-3.807c.52-1.494,1.365-3.208,1.078-4.841-.154-.977-1.116-2.219-.936-3.234-.447-.063-.413-.429-.687-.693-.195-.227-1.311-1.1-1.582-.637-.079.1-.681.955-.7.968a9.24,9.24,0,0,0-1.078,1.544,3.937,3.937,0,0,1-.3.8c-.054.063-.155.1-.183.17a8.387,8.387,0,0,0-.221.832c0,.208-.412,1.27-.306,1.529a16.781,16.781,0,0,0-.119,1.781,12.238,12.238,0,0,1-.593,2.127c0,.012.032.038.044.053a9.105,9.105,0,0,0-.013,2.112l.092.054C113.615,110.53,113.615,110.53,113.615,110.542Zm45.752,12.664c.151.961.1,2.358-.7,3.02-.095-.063-.19-.117-.315-.2a5.75,5.75,0,0,0-1.778,1.153c-.22.334-.454.675-.674,1.025-.517-.388-1.413.135-2.049,0a7.068,7.068,0,0,1-2.027-.908,9.787,9.787,0,0,1-3.354-3.225c-2.657,1.875-6.36,3.915-9.708,2.563-.113-.05-.113-.07-.1-.274.75.22,1.024-.18,1.345-.076a19.321,19.321,0,0,1-3.492-1.523c-3.158-1.986-2.8-6.9-2.19-9.947a6.833,6.833,0,0,1,.605-1.418,13.24,13.24,0,0,1,1.008-1.57,11.918,11.918,0,0,1,2.471-2.13c.054-.038.154.028.246.041a2.038,2.038,0,0,0,.038-.233c.082.015.145.04.171.04,2.8-1.992,6.114-2.153,8.708.221a26.848,26.848,0,0,0-.469-6.739c-.271-.987-.757-1.878-1.037-2.855A4.025,4.025,0,0,0,145,98.127a4.376,4.376,0,0,0-2.724-.649,3.2,3.2,0,0,0-2.07.992,25.8,25.8,0,0,0-2.049,2.253c-.274.379-1.071,1.624-1.6,1.381-.952.8-1.4,1.472-1.973.158a7.863,7.863,0,0,1-.4-1.352c-.1-.391-.7-.741-.478-1.154.145-.246.277-.5.428-.791-.321-.306-.034-1.4.142-1.749a7.52,7.52,0,0,1,1.894-2.178,9.664,9.664,0,0,1,2.247-1.964,7.164,7.164,0,0,1,2.815-.52c1.991-.114,3.836-.322,5.613.724,1.762,1.031,2.273,2.862,3.155,4.533,1.979,3.631,1.91,7.965,1.91,11.952-.056.655-.123,1.355-.145,2.077a11.312,11.312,0,0,1-.365,2.941c-.278.788.273,1.648.148,2.492-.126.779-.94,1.422-.9,2.2.01.088.407,1.721.387,1.765.026.019.054.029.054.041.085.527-.007,1.16.633,1.352a1.449,1.449,0,0,0,1.384-.3c.749-.823,1.159-2.439,2.143-2.988.183.441.751,1.106,1.079.86.075.025.17.05.283.088-.233.429,2.585,1.8,2.755,2.909C159.43,123.619,159.3,122.79,159.367,123.206Zm-13.326-5.739c.028-.366-.2-.413-.24-.731a1.709,1.709,0,0,0,.022-.681c-.158-.491-.189-1.015-.381-1.494a7.71,7.71,0,0,0-1.683-2.6c-.778-.785-3.174,1.649-3.7,2.3-1.548,1.9-2.685,3.51-2.273,6.092.388,2.414,3.042,2.727,4.945,1.923a5.118,5.118,0,0,0,3.313-4.806C146.054,117.315,146.041,117.744,146.041,117.467Zm39.568-8.189a12.786,12.786,0,0,0-3.9-5.944,9.05,9.05,0,0,0-3.047-1.79c-.587-.183-1.176-.315-1.766-.46a3.519,3.519,0,0,0-1.125-.054c-1.084.179-3.555-.492-3.417.425-2.73-.362-4.948,2.212-6.618,4.148-1.413-.615-2.516-1.623-4.18-1.425a8.787,8.787,0,0,0-4.432,2.08c.1.032.731.2.687.511s-1.066,1.166-1.633,1.772c-.649.7-.466,1.052.429.807-.057.7.082,1.349-.026,1.986.2.1.46.432.423.507.3.044.681.249.567.356a2.283,2.283,0,0,0,2.011-.4,11.13,11.13,0,0,0,.946-.728c.334-.3.58-.943.951-1.151,1.507-.838,1.67,3.681,1.526,4.255a23.81,23.81,0,0,0-.448,6.726c.013.759.769,3.334,1.8,3.127.335.536,1.488,1.708,1.753.328a30.573,30.573,0,0,0,.712-3.524,15.3,15.3,0,0,1,.794-3.757c.132-.4.983-1.882.246-2.162a6.464,6.464,0,0,0,.214-1.311,26.631,26.631,0,0,1,1.317-3.2c-.555-.747.385-1.878.851-2.518a5.717,5.717,0,0,1,3-2.253c.035.079.072.152.1.223a3.914,3.914,0,0,1,3.114.6,6.844,6.844,0,0,1,2.569,2.074c.728,1.236.448,2.332.681,3.653.092.5.542,1,.469,1.484a8.237,8.237,0,0,1-.485,1.737c-.435,1.17-.573,2.462-1.065,3.6a12.76,12.76,0,0,1-2.219,3.369,33.72,33.72,0,0,0-2.09,2.711c-.6.838-2.052,3.2-1.662,3.347s1.456-1.289,2.175-1.106c.063.076.132.164.214.255a1.106,1.106,0,0,0,1.1.1,4.735,4.735,0,0,0,1.444-.558c.268-.205,1,.016,1.356-.135a3.517,3.517,0,0,0,1.412-1.268c.637-.917,1.828-1.576,2.049-2.421.119-.447.441-.779.5-1.239.06-.387.056-.778.132-1.157a2.683,2.683,0,0,1,.457-1.053c.479-.564.148.022.275-.741a8.786,8.786,0,0,1,1.32-2.569,9.951,9.951,0,0,0,.517-7.262C185.357,108.55,185.839,109.947,185.609,109.278Zm-87.56,9.371c-3.173.46-6.036-3.7-6.666-6.336a10.507,10.507,0,0,1,1.941-8.652c-1.374-1.28-2.351-2.654-2.055-4.611a6.1,6.1,0,0,1,1.172-2.963c1.009-1.377,2.628-2.919,4.4-3.152a8.063,8.063,0,0,1,5.081.873c1.25.744,2.574,2.115,2.24,3.625a11.04,11.04,0,0,1-.366,1.349,3.5,3.5,0,0,1-.782,1.182c-.255.126-1.651-.634-1.579-.974a1.322,1.322,0,0,0-.5-1.594,4.05,4.05,0,0,0-2.228-.854,2.127,2.127,0,0,0-2.127.7c-.24,1.548-1.027,4.57,1.138,5.144,1.084.287,2.32-.387,3.366-.05a1.094,1.094,0,0,1,.485,1.412.978.978,0,0,1,.53,1.494c-.423.583-1.649.526-1.784.671a1.9,1.9,0,0,1-.965.413,6.266,6.266,0,0,0-2.228,1,4.885,4.885,0,0,0-1.859,4.015A2.275,2.275,0,0,0,96.2,113.1c.322.246,1.692.372,1.774.6a2.383,2.383,0,0,0,2.27-1.2c.315-.583.031-1.21.359-1.857.091.152,1.128.091,1.648.214s1.021-.23,1.532-.362c.148.325.5.275.806.328a4.93,4.93,0,0,1,.18,1.371c.269,1.314-.148,1.932-.624,3.092a5.7,5.7,0,0,1-3.454,2.912c-.75.215-1.882.3-2.641.451C96.961,118.809,98.077,118.645,98.048,118.649Zm100.7,2.574c.552.316-.888.836-.583,1.06-.026.545-.873.886-1.05.987-.362.211-.183.863-.454,1.185a1.08,1.08,0,0,0-.283.861c-.306.072-1.078-.082-1.343.466-.284-.621-1.088-.5-1.407-1.125.026-.029-1.557-2.128-1.2-1.551a6.632,6.632,0,0,1-2.137-3.675,13.415,13.415,0,0,1-.271-3.256c.034-1,.457-2.017.432-3a5.37,5.37,0,0,1,.636-2.367c.316-.586.8-1.51.549-2.143-.735-1.828-2.622-.23-3.858-.353.126-.145.759-1.09.33-1.415.224-.183.208-.9.032-.993.472-.542.486-1.324.952-1.9.378-.476.927-.337,1.3-.842.387.139,2.7.057,3.177.265.53.224,1.107.095,1.633.327,2.273,1,2.311,4.167,1.727,6.187a19.492,19.492,0,0,1-1.241,3.8,5.441,5.441,0,0,0-.886,3.133c.2,2.216,2.239,3.369,3.946,4.346C198.856,121.293,198.4,121.028,198.745,121.223Zm-6.852-22.4c.444.265.69-.12,1.11-.12.018.117.271.126.459-.123.221-.281.729-.406,1.016-.63.416-.324,3.221-3.776,2.761-5.172-.529-1.617-3.042-.4-4.038-.706-1.513-.46-1.86,2.178-2.373,2.95a2.855,2.855,0,0,0,1.066,3.8ZM127.158,113.59c1.387,1.916,4.145,0,3.637-1.97.07-.094.146-.2.237-.324-.438-.41-.858-.637-.668-1.239a4.4,4.4,0,0,0-2.884.369,3.194,3.194,0,0,0-.926,2.54,5.633,5.633,0,0,1,.6.624C127.619,114.233,126.995,113.363,127.158,113.59Zm-16.207-9.821h0Zm-5.216-20.3c.123.857.419,2.061-.168,2.824a6.831,6.831,0,0,1-1.9,1.412,13.276,13.276,0,0,1-2.992.731c-.933.212-1.872.435-2.8.643-4.016.914-7.968,2.231-11.99,3.088-.259,3.391-.328,6.824-.265,10.225a99.409,99.409,0,0,0,1,10.228c.309,2.563.782,5.109,1.323,7.631.183.867.41,1.712.536,2.581a6.977,6.977,0,0,1,.233,2.723c-.132-.126-.334.294-.409.709s.088,1.072-.429.86c.164.066-1.2.817-1.261.722a4.814,4.814,0,0,0-.694.1,1.293,1.293,0,0,1-.492-.073,6.07,6.07,0,0,1-.762-.533,4.692,4.692,0,0,1-1.475-2.068,20.277,20.277,0,0,1-.624-2.37,20.614,20.614,0,0,1-.536-2.976c-.07-1.153-.542-2.244-.624-3.41a26.658,26.658,0,0,1-.069-2.925c-.221-.009-.479-2.559-.53-2.868-.107-.687-.013-1.387-.107-2.077a.567.567,0,0,1-.089-.142c-.233.385-.2-1.481-.536-2.26-.567-1.32.038-2.871-.164-4.214-.34-2.518.221-5.1.221-7.64q-3.523,1.333-6.972,2.855l.016.013a4.956,4.956,0,0,1-1.869.675c-.943.356-1.862.769-2.8,1.134a14.446,14.446,0,0,0-1.462.438c-.836.423-2.591,1.3-3.618.678-.044-.025-.479.18-.413-.069s-.81-1.273-1.327-1.557a1.546,1.546,0,0,1-.756-1.813,3.4,3.4,0,0,1,1.739-1.062c-.305-.549,3.12-1.873,4.183-2.257a.468.468,0,0,1,.126-.189.064.064,0,0,1-.019-.026c2.827-1.034,5.266-2.42,8.09-3.473,1.886-.7,3.8-1.327,5.636-2.137,1.475-.65,3.057-.9,4.545-1.488a47.559,47.559,0,0,1,5.6-1.506c2.03-.5,4.066-1,6.108-1.432,1.068-.22,2.147-.491,3.209-.749.646-.164,1.289-.34,1.945-.473.415-.095.57.1.967.127.691.063,1.721-.486,2.134.4.1.209.009.517.176.687s.344.038.363.3C105.8,83.912,105.732,83.39,105.736,83.465Zm-9.8.75c-.005.006-.018.006-.031.012a.024.024,0,0,1-.019.013l.025-.025Zm2.311-.485a.028.028,0,0,1-.029-.013h.016C98.26,83.7,98.266,83.711,98.244,83.73Z" fill="#121820"/>
  </g>
</svg>
