<svg xmlns="http://www.w3.org/2000/svg" width="31.415" height="8.879" viewBox="0 0 31.415 8.879">
  <path id="Path_18179" data-name="Path 18179" d="M369.411,659.1a.67.67,0,0,1,.473-.758,5.15,5.15,0,0,1,1.926-.047c.443.048.65.106.747.4a.647.647,0,0,1,.032.2,1.585,1.585,0,0,1-.023.308.666.666,0,0,0-.011.171,2.074,2.074,0,0,1-.052.721.666.666,0,0,0-.041.2c-.01.2,0,.513,0,.589,0,.012,0,.023,0,.035,0,.237-.04,2.724-.12,3.077a.7.7,0,0,0-.017.124,19.56,19.56,0,0,0,.416,5.587.684.684,0,0,1,.021.084,18.037,18.037,0,0,0,1.253,3.592,17.29,17.29,0,0,1,1.179,5.652c0,.857.161,8.946.161,8.946s.013,1.219-.442,1.339-.75.362-4.366.335c-3.509,0-3.817-.549-3.817-.549a3.053,3.053,0,0,1-.254-1.366c0-.978.321-8.759.321-8.759s.161-4,1.379-6.04a13.834,13.834,0,0,0,1.362-4.4c0-.016.006-.032.009-.048a16.807,16.807,0,0,0,.137-4.228.743.743,0,0,0-.039-.187.478.478,0,0,1-.016-.071.643.643,0,0,1-.008-.091l-.064-3.555a.657.657,0,0,0-.037-.209,1.18,1.18,0,0,1-.072-.435,3.484,3.484,0,0,0-.04-.6Z" transform="translate(-658.233 375.359) rotate(-90)" fill="#121820"/>
</svg>
